<?xml version="1.0" encoding="UTF-8" standalone="no"?>
<svg width="49px" height="49px" viewBox="0 0 49 49" version="1.1" xmlns="http://www.w3.org/2000/svg" xmlns:xlink="http://www.w3.org/1999/xlink" xmlns:sketch="http://www.bohemiancoding.com/sketch/ns">
    <!-- Generator: Sketch 3.3.3 (12072) - http://www.bohemiancoding.com/sketch -->
    <title>facebook</title>
    <desc>Created with Sketch.</desc>
    <defs></defs>
    <g id="Page-1" stroke="none" stroke-width="1" fill="none" fill-rule="evenodd" sketch:type="MSPage">
        <g id="facebook" sketch:type="MSArtboardGroup" fill="#FFFFFF">
            <path d="M21.771,4.31432046 C20.086,5.22832046 18.906,6.45032046 18.259,7.94932046 C17.654,9.35832046 17.358,11.3523205 17.358,14.0573205 L17.358,14.9773205 L13,14.9773205 L13,23.7763205 L17.358,23.7763205 L17.358,47.2653205 L27.83,47.2653205 L27.83,23.7773205 L33.695,23.7773205 L33.695,14.9783205 L27.83,14.9783205 L27.83,14.1973205 C27.83,12.5023205 28.178,12.0763205 28.221,12.0303205 C28.446,11.7883205 28.974,11.6553205 29.703,11.6553205 C30.744,11.6553205 31.854,11.7913205 33.001,12.0663205 L34.33,12.3833205 L35.876,4.41532046 L34.756,4.06232046 C30.217,2.63632046 24.978,2.57432046 21.771,4.31432046 L21.771,4.31432046 Z" id="Shape" sketch:type="MSShapeGroup"></path>
        </g>
    </g>
</svg>