<?xml version="1.0" encoding="UTF-8" standalone="no"?>
<svg width="49px" height="49px" viewBox="0 0 49 49" version="1.1" xmlns="http://www.w3.org/2000/svg" xmlns:xlink="http://www.w3.org/1999/xlink" xmlns:sketch="http://www.bohemiancoding.com/sketch/ns">
    <!-- Generator: Sketch 3.3.3 (12072) - http://www.bohemiancoding.com/sketch -->
    <title>gram</title>
    <desc>Created with Sketch.</desc>
    <defs></defs>
    <g id="Page-1" stroke="none" stroke-width="1" fill="none" fill-rule="evenodd" sketch:type="MSPage">
        <g id="gram" sketch:type="MSArtboardGroup" fill="#FFFFFF">
            <path d="M39.2691504,5 L10.4808496,5 C7.45896379,5 5,7.45940669 5,10.4821783 L5,39.2678217 C5,42.2905933 7.45896379,44.75 10.4808496,44.75 L39.2691504,44.75 C42.2910362,44.75 44.75,42.2905933 44.75,39.2678217 L44.75,10.4821783 C44.75,7.45940669 42.2910362,5 39.2691504,5 L39.2691504,5 Z M36.4155655,10.7705042 L39.6208106,10.7705042 L39.6208106,13.9761922 L36.4155655,13.9761922 L36.4155655,10.7705042 L36.4155655,10.7705042 Z M10.4808496,8.84700279 L34.2847883,8.84700279 C34.0177214,9.16057382 33.8507493,9.56183844 33.8507493,10.0047354 L33.8507493,14.741961 C33.8507493,15.7336072 34.6577075,16.5410084 35.6497967,16.5410084 L40.3870223,16.5410084 C40.5677242,16.5410084 40.7386825,16.5060195 40.9034401,16.456415 L40.9034401,17.823195 L33.7125655,17.823195 C31.6632813,15.4501532 28.6405097,13.9398747 25.2665209,13.9398747 C21.892532,13.9398747 18.8702033,15.4501532 16.8209192,17.823195 L8.84700279,17.823195 L8.84700279,10.4821783 C8.84700279,9.58044011 9.57999721,8.84700279 10.4808496,8.84700279 L10.4808496,8.84700279 Z M19.1049387,21.1701671 C19.3166435,20.9797214 19.4884875,20.7476435 19.5987688,20.4814624 C20.9425181,18.8378719 22.9838301,17.7864345 25.2665209,17.7864345 C27.4314011,17.7864345 29.3739471,18.7364485 30.7159248,20.2352117 C30.8421504,20.7135404 31.1437632,21.1170195 31.5525571,21.3730139 C32.2058301,22.4678552 32.5876072,23.7420696 32.5876072,25.1066351 C32.5876072,29.1436407 29.3039694,32.4277214 25.2669638,32.4277214 C21.2312869,32.4277214 17.9472061,29.1436407 17.9472061,25.1066351 C17.9463203,23.6574763 18.3754875,22.3084123 19.1049387,21.1701671 L19.1049387,21.1701671 Z M39.2691504,40.9034401 L10.4808496,40.9034401 C9.57999721,40.9034401 8.84700279,40.1700028 8.84700279,39.2682646 L8.84700279,21.669312 L14.6471811,21.669312 C14.2955209,22.7530808 14.1002033,23.9068273 14.1002033,25.1066351 C14.1002033,31.2646741 19.1098106,36.2742813 25.2669638,36.2742813 C31.4245599,36.2742813 36.43461,31.2646741 36.43461,25.1066351 C36.43461,23.9072702 36.2397354,22.7530808 35.8876323,21.669312 L40.903883,21.669312 L40.903883,39.2678217 C40.9029972,40.1695599 40.1700028,40.9034401 39.2691504,40.9034401 L39.2691504,40.9034401 Z" id="Shape" sketch:type="MSShapeGroup"></path>
        </g>
    </g>
</svg>