<svg viewBox="0 0 132 132" version="1.1" >
    <g id="Page-1" stroke="none" stroke-width="1" fill="none" fill-rule="evenodd" sketch:type="MSPage">
        <g id="Artboard-1" sketch:type="MSArtboardGroup" fill="#FFFFFF">
            <g id="Dos57" sketch:type="MSLayerGroup" transform="translate(12.000000, 19.000000)">
                <path d="M58.9993548,11.9414177 L58.9993548,24.3290476 L60.1568197,24.3290476 L60.1568197,19.2965152 L100.28425,19.2965152 C96.3517799,23.1676623 86.1454725,32.8623918 77.5806831,41.455368 C72.5253814,46.5275866 69.802019,50.7528247 69.802019,57.2442857 L69.802019,63.4067424 C70.1161822,63.8706385 70.3391499,65.6071645 70.4108767,66.2341234 C70.0370778,64.0552922 64.9176319,54.5337013 52.3865579,54.5337013 C42.1234839,54.5337013 38.5037419,57.9183333 38.5037419,57.9183333 C38.2576167,57.9014719 38.1662163,57.6954329 38.1662163,57.6954329 L38.1662163,39.8156926 C38.1662163,39.8156926 39.5286148,39.1790693 42.6655332,39.1790693 C47.081852,39.1790693 50.5306793,40.7009199 58.3583226,40.7009199 C69.3427628,40.7009199 69.416334,32.2759416 69.416334,30.7559416 L69.416334,28.1999892 L67.737723,28.1999892 C67.737723,29.3611688 68.1031195,32.1361147 64.2434004,32.1361147 C60.3832713,32.1361147 55.1566452,30.2515368 46.3262619,30.2515368 C42.6069222,30.2515368 39.0238634,30.6072727 36.8823074,30.8443615 C39.6394839,27.5462987 41.9023605,23.6850216 41.9023605,18.0666558 C41.9019507,6.29179654 32.961518,0 21.3059203,0 C8.96727894,0 2.76701328,8.43957792 2.76701328,15.6618398 C2.76701328,22.240487 6.31154459,24.2262338 8.55105882,24.2262338 C11.8996736,24.2262338 13.4151575,22.071461 13.4151575,19.6055736 C13.4151575,12.329026 5.09690323,18.2237554 5.09690323,12.3921537 C5.09690323,8.27692641 11.1252296,1.57264069 18.5675977,1.57264069 C25.5656698,1.57264069 32.8235977,5.77875541 32.8235977,17.6922078 C32.8235977,33.5267749 21.3557192,41.4202056 5.98897913,56.8389935 C2.65307021,60.1866126 0,63.9397294 0,64.7871212 L34.260592,64.8027489 C34.260592,64.8027489 37.6145351,57.355119 47.6499279,57.355119 C54.1784972,57.355119 62.9582619,60.4866234 62.9582619,75.7803896 C62.9582619,84.5777597 58.0814573,93.1538745 48.7424288,93.1538745 C42.4015787,93.1538745 37.8577913,89.8364827 37.8577913,87.3654545 C37.8577913,84.570974 44.0111271,86.2458117 44.0111271,80.5388203 C44.0111271,77.1017532 41.6773435,75.4816126 38.7002732,75.4816126 C35.7645996,75.4816126 32.6803491,77.8230952 32.6803491,82.0347619 C32.6803491,89.5963095 39.7673624,94.9796429 50.2450019,94.9796429 C65.9843112,94.9796429 70.9594839,82.1688312 78.6752334,70.3152165 L78.6752334,52.972987 C78.6752334,40.1370887 99.5428008,23.8867424 103.457442,19.9580195 C107.688911,15.7124242 107.912288,11.9414177 107.912288,11.9414177 L58.9993548,11.9414177 L58.9993548,11.9414177 Z M35.4653966,57.2333874 L10.3686148,57.2333874 C10.3686148,57.2333874 27.6574269,40.6375866 31.8602049,36.4218074 C32.9231954,35.3550108 34.3079317,34.1021212 35.4653966,33.0087987 L35.4653966,57.2333874 L35.4653966,57.2333874 Z" id="Shape" sketch:type="MSShapeGroup"></path>
            </g>
        </g>
    </g>
</svg>
