<svg class="social" viewBox="0 0 336 330" version="1.1">
    <g id="Page-1" stroke="none" stroke-width="1" fill="none" fill-rule="evenodd" sketch:type="MSPage">
        <g id="facebook" sketch:type="MSArtboardGroup">
            <g sketch:type="MSLayerGroup" transform="translate(7.000000, 4.000000)">
                <circle id="Oval-1" fill="#AF8B2E" sketch:type="MSShapeGroup" cx="161" cy="161" r="161"></circle>
                <g id="facebook_1" transform="translate(106.000000, 42.000000)" fill="#FFFFFF" sketch:type="MSShapeGroup">
                    <g id="facebook_2_">
                        <g id="facebook_1_">
                            <path d="M72.1243871,83.1124848 C72.4567742,71.0502121 70.2276129,54.2531818 73.9886452,48.5195455 C80.8567742,38.022303 108.296774,40.7520909 108.296774,40.7520909 L108.296774,3.59884848 C65.0069677,3.59884848 50.8371613,1.79221212 35.9809032,16.8511212 C22.7649032,30.2476364 22.3566452,56.5574545 21.2691613,83.1124848 L0.0541935484,83.1124848 L0.0541935484,119.432727 L21.5076129,119.432727 C21.5003871,157.310788 21.5184516,198.823758 21.5076129,234.408364 L71.9220645,234.408364 L71.9220645,118.978364 L100.977032,118.978364 C103.23871,106.771848 105.442581,97.2121818 108.520774,83.1088788 L72.1243871,83.1124848 L72.1243871,83.1124848 Z" id="Shape"></path>
                        </g>
                    </g>
                </g>
            </g>
        </g>
    </g>
</svg>
