<svg class="social" viewBox="0 0 336 330" version="1.1">
    <g id="Page-1" stroke="none" stroke-width="1" fill="none" fill-rule="evenodd" sketch:type="MSPage">
        <g id="instagram" sketch:type="MSArtboardGroup">
            <g sketch:type="MSLayerGroup" transform="translate(7.000000, 4.000000)" id="Page-1">
                <g sketch:type="MSShapeGroup">
                    <g id="instagram">
                        <circle id="Oval-1" fill="#AF8B2E" cx="161" cy="161" r="161"></circle>
                        <g id="Page-1" transform="translate(61.000000, 61.000000)" fill="#FFFFFF">
                            <g id="instagram">
                                <g id="instagram_1_">
                                    <g id="Group">
                                        <g id="instagram">
                                            <path d="M175,0 L25,0 C11.19375,0 0,11.19375 0,25 L0,175 C0,188.80625 11.19375,200 25,200 L175,200 C188.80625,200 200,188.80625 200,175 L200,25 C200,11.19375 188.80625,0 175,0 L175,0 L175,0 Z M61.478125,95.853125 C61.51875,95.45625 61.603125,95.075 61.65625,94.684375 C61.7875,93.715625 61.93125,92.753125 62.134375,91.809375 C62.225,91.384375 62.35,90.975 62.45625,90.55625 C62.68125,89.6625 62.915625,88.771875 63.2,87.903125 C63.3375,87.490625 63.496875,87.09375 63.64375,86.6875 C63.95625,85.8375 64.28125,84.996875 64.65,84.175 C64.7125,84.034375 64.75625,83.8875 64.821875,83.746875 L64.85625,83.746875 C71.00625,70.475 84.409375,61.246875 100,61.246875 C115.5875,61.246875 128.990625,70.475 135.14375,83.746875 L135.178125,83.746875 C135.24375,83.8875 135.2875,84.034375 135.353125,84.175 C135.71875,84.996875 136.046875,85.8375 136.35625,86.6875 C136.50625,87.09375 136.665625,87.490625 136.8,87.903125 C137.0875,88.771875 137.31875,89.659375 137.54375,90.55625 C137.65,90.975 137.775,91.384375 137.86875,91.809375 C138.06875,92.753125 138.209375,93.715625 138.34375,94.684375 C138.4,95.075 138.478125,95.45625 138.525,95.853125 C138.665625,97.215625 138.75,98.596875 138.75,100 C138.75,121.40625 121.396875,138.75 100,138.75 C78.6,138.75 61.25,121.396875 61.25,100 C61.25,98.596875 61.334375,97.215625 61.478125,95.853125 L61.478125,95.853125 L61.478125,95.853125 Z M177.5,167.5 C177.5,173.025 173.021875,177.5 167.5,177.5 L32.5,177.5 C26.978125,177.5 22.5,173.021875 22.5,167.5 L22.5,83.75 L40.934375,83.75 C39.5125,88.925 38.75,94.375 38.75,100 C38.75,133.828125 66.171875,161.25 100,161.25 C133.828125,161.25 161.25,133.828125 161.25,100 C161.25,94.375 160.4875,88.925 159.065625,83.75 L177.5,83.75 L177.5,167.5 L177.5,167.5 Z M177.5,52.5 C177.5,58.021875 173.021875,62.5 167.5,62.5 L147.5,62.5 C141.978125,62.5 137.5,58.021875 137.5,52.5 L137.5,32.5 C137.5,26.978125 141.98125,22.5 147.5,22.5 L167.5,22.5 C173.025,22.5 177.5,26.975 177.5,32.5 L177.5,52.5 L177.5,52.5 Z" id="Shape"></path>
                                        </g>
                                    </g>
                                </g>
                            </g>
                        </g>
                    </g>
                </g>
            </g>
        </g>
    </g>
</svg>
