<svg class="social" width="49px" height="49px" viewBox="0 0 49 49" version="1.1">
    <g id="Page-1" stroke="none" stroke-width="1" fill="none" fill-rule="evenodd" sketch:type="MSPage">
        <g id="pin" sketch:type="MSArtboardGroup" fill="#FFFFFF">
            <path d="M8.49925015,19.0123881 C8.49925015,17.2487408 8.87017596,15.4990908 9.61202759,13.7634379 C10.3538792,12.027785 11.4176665,10.418107 12.8033893,8.9344037 C14.1891122,7.45070044 16.0087483,6.24694119 18.2622975,5.32312596 C20.5158468,4.39931072 23.0143471,3.9374031 25.7577984,3.9374031 C30.2089082,3.9374031 33.8621776,5.30912876 36.7176065,8.05258007 C39.5730354,10.7960314 41.0007499,14.0293847 41.0007499,17.7526401 C41.0007499,22.5396826 39.789992,26.4938918 37.3684763,29.6152675 C34.9469606,32.7366433 31.8185863,34.2973311 27.9833533,34.2973311 C26.7236053,34.2973311 25.5408418,34.0033899 24.435063,33.4155075 C23.3292841,32.8276251 22.5524395,32.1137678 22.1045291,31.2739358 L20.424865,37.9086089 C20.284893,38.4405025 20.1029294,38.9793947 19.8789742,39.5252855 C19.655019,40.0711763 19.410068,40.5960714 19.1441212,41.0999706 C18.8781744,41.6038698 18.6122276,42.0797746 18.3462807,42.527685 C18.0803339,42.9755955 17.8143871,43.3955115 17.5484403,43.7874331 C17.2824935,44.1793547 17.0515397,44.5082889 16.8555789,44.7742357 C16.6596181,45.0401825 16.4776545,45.2711364 16.3096881,45.4670972 L16.0577385,45.80303 C15.9737552,45.9150076 15.8617776,45.9569992 15.7218056,45.9290048 C15.5818336,45.9010104 15.4978504,45.8170272 15.469856,45.6770552 C15.469856,45.6490608 15.4488602,45.4531 15.4068686,45.0891727 C15.364877,44.7252455 15.3228854,44.3403225 15.2808938,43.9344037 C15.2389022,43.5284849 15.1969106,43.0035899 15.154919,42.3597186 C15.1129274,41.7158474 15.0989302,41.092972 15.1129274,40.4910924 C15.1269246,39.8892127 15.1689162,39.2243457 15.2389022,38.4964913 C15.3088882,37.7686369 15.4138672,37.0967712 15.5538392,36.4808944 C15.8617776,35.1651575 16.8975705,30.7840338 18.6612178,23.3375231 C18.4372625,22.8896127 18.2552989,22.3507204 18.1153269,21.7208464 C17.9753549,21.0909724 17.9053689,20.5800746 17.9053689,20.188153 L17.8633773,19.5582789 C17.8633773,17.7666373 18.3182863,16.2759354 19.2281044,15.0861733 C20.1379224,13.8964113 21.2367027,13.3015303 22.5244451,13.3015303 C23.560238,13.3015303 24.365077,13.6444617 24.9389622,14.3303245 C25.5128474,15.0161873 25.79979,15.8770152 25.79979,16.912808 C25.79979,17.5566792 25.6808138,18.3475211 25.4428614,19.2853335 C25.204909,20.223146 24.889972,21.3009304 24.4980504,22.5186868 C24.1061288,23.7364433 23.8261848,24.7232459 23.6582184,25.4790948 C23.3782743,26.7388428 23.6232254,27.8306245 24.3930714,28.7544397 C25.1629174,29.6782549 26.1917117,30.1401625 27.4794541,30.1401625 C29.6910118,30.1401625 31.5176465,28.8874131 32.9593581,26.3819142 C34.4010698,23.8764153 35.1219256,20.8460214 35.1219256,17.2907324 C35.1219256,14.5752755 34.240102,12.3567192 32.4764547,10.6350636 C30.7128074,8.9134079 28.2493001,8.05258007 25.0859328,8.05258007 C21.5586383,8.05258007 18.6962108,9.18635331 16.4986503,11.4538998 C14.3010898,13.7214463 13.2023095,16.4369032 13.2023095,19.6002705 C13.2023095,21.4758954 13.7342032,23.0575791 14.7979904,24.3453215 C15.1619176,24.7652375 15.2738952,25.213148 15.1339232,25.6890528 C15.0779344,25.8290248 14.9939512,26.1509604 14.8819736,26.6548596 C14.769996,27.1587588 14.6860128,27.4806944 14.630024,27.6206664 C14.5740352,27.9286049 14.4340632,28.1315643 14.210108,28.2295447 C13.9861528,28.3275251 13.7342032,28.3205265 13.4542591,28.2085489 C11.8025895,27.5366832 10.5638372,26.3819142 9.7380024,24.7442417 C8.91216757,23.1065693 8.49925015,21.1959514 8.49925015,19.0123881 L8.49925015,19.0123881 Z" id="Shape" sketch:type="MSShapeGroup"></path>
        </g>
    </g>
</svg>
