<svg class="social" viewBox="0 0 336 330" version="1.1">
    <g id="Page-1" stroke="none" stroke-width="1" fill="none" fill-rule="evenodd" sketch:type="MSPage">
        <g id="pinterest" sketch:type="MSArtboardGroup">
            <g id="Page-1" sketch:type="MSLayerGroup" transform="translate(7.000000, 4.000000)">
                <circle id="Oval-1" fill="#AF8B2E" sketch:type="MSShapeGroup" cx="161" cy="161" r="161"></circle>
                <g id="pinterest" transform="translate(72.000000, 43.000000)" fill="#FFFFFF" sketch:type="MSShapeGroup">
                    <g id="pinterest_1">
                        <g id="pinterest_2_">
                            <g id="pinterest_1_">
                                <path d="M175.37704,59.6293333 C171.91518,47.7435152 166.45926,38.2212727 158.95916,30.0435152 C151.68102,22.0946061 143.0747,15.6832727 132.29174,10.8631515 C122.078,6.30048485 108.49906,2.92139394 93.57762,3.62581818 C88.46538,3.86539394 83.76126,4.14072727 79.21108,4.80224242 C65.49968,6.79393939 54.22984,10.9346667 44.24164,16.8310909 C31.24624,24.5046667 20.57068,35.2462424 13.28538,48.6767879 C9.7734,55.1453333 6.60152,63.1121212 4.89744,71.7475758 C3.1325,80.6798182 3.12892,91.4607273 4.89744,100.696909 C7.8044,115.904606 14.89996,127.629515 26.57434,134.080182 C28.13522,134.941939 30.4479,136.286424 32.28444,136.247091 C36.72722,136.161273 36.83104,130.912061 37.81554,127.11103 C38.63178,123.957212 40.53992,119.616242 38.88596,116.705576 C37.71888,114.653091 35.96826,113.165576 34.78328,111.36697 C31.0386,105.695818 28.71518,98.4155758 28.71518,89.0220606 C28.71518,76.8358788 31.69732,67.0490303 36.20812,58.5351515 C44.8216,42.2833333 59.45306,30.5083636 80.18842,26.9576364 C91.60146,25.0052727 104.45008,26.0136364 113.7366,29.0387273 C123.09114,32.0888485 130.78814,37.5168485 136.21542,44.3286667 C141.92194,51.4873333 145.51626,60.7163636 146.2967,72.1945455 C146.71556,78.4127879 146.27522,84.7168485 145.67378,90.1984848 C143.79786,107.208364 138.8503,121.500667 130.68432,132.088485 C125.57924,138.710788 117.93952,145.722848 106.9525,146.112606 C100.73404,146.330727 96.21966,144.807455 92.41054,142.039818 C88.73388,139.365152 86.04172,135.803697 84.82094,130.640303 C83.49992,125.012061 85.10018,119.655576 86.51428,114.442121 C89.37112,103.929394 92.51078,95.7444848 94.89864,84.856303 C95.9619,80.0218788 96.93208,73.4496364 95.61464,67.9393939 C94.37238,62.7724242 91.72318,59.118 87.8532,56.8116364 C84.09778,54.5732121 77.91154,53.6935758 72.33032,55.6316364 C63.54858,58.6889091 57.84922,67.0776364 55.37902,76.5319394 C53.97924,81.8812727 53.47804,87.6847273 54.1296,93.9029697 C54.69524,99.3166667 55.98404,103.947273 57.96378,109.103515 C58.23586,109.807939 57.45184,111.849697 57.15828,113.086909 C52.78352,131.652242 48.64862,149.738424 44.31324,168.182182 C42.03636,177.865333 39.58406,187.559212 39.05064,199.216182 C38.58166,209.442848 37.72246,219.966303 38.98262,229.073758 C39.21532,230.750788 39.31914,231.902182 40.50054,232.148909 C42.05068,232.467152 40.9552,234.848606 46.09966,228.891394 C53.8432,219.930545 59.74304,208.867152 64.38988,197.406848 C67.19302,190.491333 68.88636,182.860667 70.8124,175.333697 C72.76708,167.70303 74.65016,159.893576 76.5225,152.445273 C79.40082,157.501394 83.46412,160.848303 88.3007,163.57303 C93.17666,166.322788 98.96552,168.24297 106.05392,168.729273 C113.34638,169.23703 120.15912,167.931879 126.1234,166.194061 C132.14496,164.441939 137.44336,161.810182 141.82886,158.956727 C159.89354,147.192485 171.9295,126.517455 176.17538,101.236848 C177.30666,94.4822424 178.93198,87.7312121 178.93198,80.0647879 C178.93556,72.437697 177.18136,65.8153939 175.37704,59.6293333 L175.37704,59.6293333 L175.37704,59.6293333 Z" id="Shape"></path>
                            </g>
                        </g>
                    </g>
                </g>
            </g>
        </g>
    </g>
</svg>
